<svg width="80" height="53" viewBox="0 0 80 53" fill="none" xmlns="http://www.w3.org/2000/svg">
<g clip-path="url(#clip0_7770_135839)">
<path d="M64.8108 5.00024H50.3754C45.3037 5.00024 41.0683 8.5512 40.0002 13.3003C38.9324 8.5512 34.6971 5.00024 29.6253 5.00024H15.1898C12.4227 5.00024 10.1797 7.24324 10.1797 10.0101V35.4105C10.1797 38.1776 12.4227 40.4206 15.1898 40.4206H24.7685C24.7685 40.4206 24.7688 40.4209 24.769 40.4209C34.7589 40.4514 38.0344 42.7974 39.613 47.5918C39.6779 47.7399 39.8284 47.8475 40.0004 47.8475C40.1732 47.8475 40.3229 47.7411 40.3874 47.5918C41.9655 42.7974 45.2417 40.4514 55.2314 40.4209C55.2316 40.4209 55.2316 40.4206 55.2319 40.4206H64.8111C67.5782 40.4206 69.8212 38.1776 69.8212 35.4105V10.0101C69.8212 7.24324 67.5782 5 64.8111 5L64.8108 5.00024ZM35.205 32.2092C35.205 32.5046 34.9656 32.744 34.6702 32.744H18.3545C18.0591 32.744 17.8198 32.5046 17.8198 32.2092V30.1787C17.8198 29.8833 18.0591 29.6439 18.3545 29.6439H34.6702C34.9656 29.6439 35.205 29.8833 35.205 30.1787V32.2092ZM35.205 25.8892C35.205 26.1846 34.9656 26.424 34.6702 26.424H18.3545C18.0591 26.424 17.8198 26.1846 17.8198 25.8892V23.8587C17.8198 23.5633 18.0591 23.3239 18.3545 23.3239H34.6702C34.9656 23.3239 35.205 23.5633 35.205 23.8587V25.8892ZM35.205 19.5692C35.205 19.8646 34.9656 20.104 34.6702 20.104H18.3545C18.0591 20.104 17.8198 19.8646 17.8198 19.5692V17.5387C17.8198 17.2433 18.0591 17.0039 18.3545 17.0039H34.6702C34.9656 17.0039 35.205 17.2433 35.205 17.5387V19.5692ZM62.1806 32.2092C62.1806 32.5046 61.9412 32.744 61.6459 32.744H45.3306C45.0353 32.744 44.7959 32.5046 44.7959 32.2092V30.1787C44.7959 29.8833 45.0353 29.6439 45.3306 29.6439H61.6459C61.9412 29.6439 62.1806 29.8833 62.1806 30.1787V32.2092ZM62.1806 25.8892C62.1806 26.1846 61.9412 26.424 61.6459 26.424H45.3306C45.0353 26.424 44.7959 26.1846 44.7959 25.8892V23.8587C44.7959 23.5633 45.0353 23.3239 45.3306 23.3239H61.6459C61.9412 23.3239 62.1806 23.5633 62.1806 23.8587V25.8892ZM62.1806 19.5692C62.1806 19.8646 61.9412 20.104 61.6459 20.104H45.3306C45.0353 20.104 44.7959 19.8646 44.7959 19.5692V17.5387C44.7959 17.2433 45.0353 17.0039 45.3306 17.0039H61.6459C61.9412 17.0039 62.1806 17.2433 62.1806 17.5387V19.5692Z" fill="white"/>
</g>
<defs>
<clipPath id="clip0_7770_135839">
<rect width="70" height="42.8475" fill="white" transform="translate(5 5)"/>
</clipPath>
</defs>
</svg>
