<?xml version="1.0" encoding="UTF-8"?>
<svg width="278px" height="52px" viewBox="0 0 278 52" version="1.1" xmlns="http://www.w3.org/2000/svg" xmlns:xlink="http://www.w3.org/1999/xlink">
    <title>ReadMe</title>
    <g id="Page-1" stroke="none" stroke-width="1" fill="none" fill-rule="evenodd">
        <g id="readme" transform="translate(0.05, -0.0113)" fill="#FFFFFF" fill-rule="nonzero">
            <path d="M107.98,25.9613227 C108.200799,30.2264638 111.834582,33.5067142 116.1,33.2913227 C119.355287,33.2585738 122.441276,31.8356708 124.58,29.3813227 C124.711214,29.1644722 124.937427,29.0226295 125.18978,28.9989715 C125.442132,28.9753134 125.690767,29.0726391 125.86,29.2613227 L128.79,32.4313227 C128.993897,32.5861928 129.123116,32.8197957 129.145954,33.0748194 C129.168791,33.3298432 129.083135,33.5826886 128.91,33.7713227 C128.3,34.7713227 124.09,40.1213227 115.42,40.1213227 C106.75,40.1213227 99.61,34.3813227 99.61,24.6213227 C99.5071098,20.5637332 101.052967,16.6376528 103.894633,13.7394548 C106.7363,10.8412567 110.631171,9.218371 114.69,9.24108257 C124.21,9.24108257 128.97,14.9813227 128.97,24.9913227 C128.97,25.5436075 128.522285,25.9913227 127.97,25.9913227 L107.97,25.9913227 L107.98,25.9613227 Z M121.23,21.2613227 C121.11,18.4513227 119.34,15.6413227 115,15.6413227 C111.46,15.6413227 108.77,17.4113227 108.1,21.2613227 L121.22,21.2613227 L121.23,21.2613227 Z" id="Shape"></path>
            <path d="M256.61,25.8513227 C256.718513,27.9015287 257.63714,29.8246252 259.163739,31.1974386 C260.690337,32.570252 262.699818,33.2802945 264.75,33.1713227 C268.005287,33.1385738 271.091276,31.7156708 273.23,29.2613227 C273.361214,29.0444722 273.587427,28.9026295 273.83978,28.8789715 C274.092132,28.8553134 274.340767,28.9526391 274.51,29.1413227 L277.44,32.3113227 C277.643897,32.4661928 277.773116,32.6997957 277.795954,32.9548194 C277.818791,33.2098432 277.733135,33.4626886 277.56,33.6513227 C276.95,34.6513227 272.74,40.0013227 264.07,40.0013227 C255.4,40.0013227 248.26,34.2613227 248.26,24.5013227 C248.17094,20.4557814 249.720163,16.5458656 252.555953,13.6592353 C255.391742,10.772605 259.273515,9.15415648 263.32,9.17118757 C272.84,9.17118757 277.6,14.9113227 277.6,24.9213227 C277.6,25.4736075 277.152285,25.9213227 276.6,25.9213227 L256.6,25.9213227 L256.61,25.8513227 Z M269.85,21.1713227 C269.73,18.3613227 267.96,15.5513227 263.62,15.5513227 C260.08,15.5513227 257.39,17.3213227 256.72,21.1713227 L269.85,21.1713227 Z" id="Shape"></path>
            <path d="M157.89,39.6713227 C157.116678,39.7791478 156.337558,39.5179863 155.785447,38.9658754 C155.233336,38.4137645 154.972175,37.6346446 155.08,36.8613227 L155.08,34.3013227 L154.9,34.3013227 C154.05,36.3813227 151.6,40.1013227 145.62,40.1013227 C137.14,40.1013227 131.95,33.7513227 131.95,24.7213227 C131.95,14.8313227 137.75,9.15132274 145.68,9.15132274 C151.48,9.15132274 154.23,12.3213227 154.68,13.4213227 L154.8,13.4213227 L154.8,10.5513227 C154.774293,10.318955 154.855547,10.0874925 155.020858,9.92218124 C155.18617,9.75686999 155.417632,9.67561568 155.65,9.70132274 L161.14,9.70132274 C161.369669,9.68645782 161.594615,9.77122635 161.757356,9.93396693 C161.920096,10.0967075 162.004865,10.3216534 161.99,10.5513227 L161.99,33.1713227 L164.27,33.1713227 C164.498712,33.1403562 164.728204,33.2224913 164.885327,33.3915481 C165.042451,33.5606049 165.107596,33.7954853 165.06,34.0213227 L165.06,38.7813227 C165.08672,39.0032975 165.014344,39.2257766 164.862137,39.3895438 C164.709929,39.553311 164.493334,39.6417505 164.27,39.6313227 L157.84,39.6313227 L157.89,39.6713227 Z M154.23,24.7813227 C154.23,19.0413227 151.12,16.1113227 147.23,16.1113227 C142.9,16.1113227 139.97,19.5313227 139.97,24.8413227 C139.97,30.1513227 143.08,33.3213227 147.23,33.3213227 C150.94,33.3213227 154.23,30.4513227 154.23,24.7713227 L154.23,24.7813227 Z" id="Shape"></path>
            <path d="M97.66,16.8013227 C98.7955309,14.408256 100.456858,12.3025407 102.52,10.6413227 C102.663524,10.4857865 102.716173,10.266972 102.659109,10.0631722 C102.602045,9.85937232 102.443424,9.69971366 102.24,9.64132274 C100.869608,9.37093787 99.4767823,9.23031603 98.08,9.22132274 C88.13,9.22132274 85.75,17.1613227 85.75,17.1613227 L85.51,17.1613227 L85.51,10.3813227 C85.51,9.91188071 85.129442,9.53132274 84.66,9.53132274 L75.56,9.53132274 C75.090558,9.53132274 74.71,9.91188071 74.71,10.3813227 L74.71,15.1413227 C74.6842929,15.3736905 74.7655473,15.605153 74.9308585,15.7704642 C75.0961697,15.9357755 75.3276323,16.0170298 75.56,15.9913227 L78.56,15.9913227 L78.56,33.0813227 L76.35,33.0813227 C76.1157775,33.0473086 75.879242,33.1258495 75.7118844,33.2932071 C75.5445267,33.4605647 75.4659858,33.6971002 75.5,33.9313227 L75.5,38.6913227 C75.4851351,38.9209921 75.5699036,39.145938 75.7326442,39.3086786 C75.8953848,39.4714191 76.1203306,39.5561877 76.35,39.5413227 L88.75,39.5413227 C89.219442,39.5413227 89.6,39.1607648 89.6,38.6913227 L89.6,33.9313227 C89.6,33.4618807 89.219442,33.0813227 88.75,33.0813227 L86.64,33.0813227 L86.64,25.6313227 C86.64,21.4813227 91.64,16.7213227 97.03,17.2313227 C97.3108657,17.2392206 97.5650112,17.0657562 97.66,16.8013227 L97.66,16.8013227 Z" id="Path"></path>
            <path d="M196.2,33.0413227 L196.2,0.861322743 C196.234014,0.627100223 196.155473,0.390564726 195.988116,0.223207096 C195.820758,0.0558494659 195.584223,-0.0226914237 195.35,0.0113227433 L186.35,0.0113227433 C186.108182,-0.030049902 185.860867,0.0432705199 185.680671,0.209755308 C185.500476,0.376240097 185.407854,0.616992915 185.43,0.861322743 L185.43,5.62132274 C185.407854,5.86565257 185.500476,6.10640539 185.680671,6.27289018 C185.860867,6.43937497 186.108182,6.51269539 186.35,6.47132274 L188.35,6.47132274 L188.35,10.8713227 C188.35,12.1513227 188.47,13.3713227 188.47,13.3713227 L188.35,13.3713227 C187.8,12.2113227 185.42,9.04132274 179.93,9.04132274 C171.45,9.04132274 166.01,15.3913227 166.01,24.3613227 C166.01,34.3113227 171.81,39.9313227 179.74,39.9313227 C185.48,39.9313227 188.47,36.2113227 188.96,34.9913227 L189.08,34.9913227 L189.08,37.9913227 C189.08,38.852887 189.778436,39.5513227 190.64,39.5513227 L194.94,39.5513227 C195.61931,39.5513227 196.17,39.000633 196.17,38.3213227 L196.17,33.0713227 L196.2,33.0413227 Z M181.31,33.1013227 C176.92,33.1013227 174.05,29.5613227 174.05,24.3113227 C174.05,19.0613227 177.16,15.8913227 181.31,15.8913227 C185.03,15.8913227 188.31,18.6413227 188.31,24.3713227 C188.31,30.1013227 185.28,33.1013227 181.31,33.1013227 L181.31,33.1013227 Z" id="Shape"></path>
            <path d="M246.88,33.1213227 L244.63,33.1213227 L244.63,19.8713227 C244.63,13.5813227 241.09,9.13132274 234.5,9.13132274 C227.91,9.13132274 225.83,13.3413227 225.28,14.1313227 C223.81,11.0813227 220.82,9.13132274 216.49,9.13132274 C209.71,9.13132274 207.58,13.8313227 207.27,14.3813227 L207.09,14.3813227 L207.09,10.8413227 C207.156547,10.4742655 207.034268,10.0983272 206.764518,9.84065568 C206.494768,9.5829842 206.113626,9.47804224 205.75,9.56132274 L201.35,9.56132274 C200.615461,9.56132274 200.02,10.156784 200.02,10.8913227 L200.02,37.7513227 C200.02,38.2393211 200.213857,38.7073323 200.558924,39.0523992 C200.90399,39.3974662 201.372002,39.5913227 201.86,39.5913227 L210.31,39.5913227 C210.535434,39.5913227 210.751635,39.5017694 210.911041,39.3423635 C211.070447,39.1829576 211.16,38.9667568 211.16,38.7413227 L211.16,33.9713227 C211.194014,33.7371002 211.115473,33.5005647 210.948116,33.3332071 C210.780758,33.1658495 210.544223,33.0873086 210.31,33.1213227 L208.19,33.1213227 L208.19,20.1713227 C208.850168,17.7637884 211.064239,16.1145738 213.56,16.1713227 C217.47,16.1713227 218.56,18.7313227 218.56,22.4613227 L218.56,38.8413227 C218.557323,39.0313531 218.630943,39.214524 218.764385,39.3498456 C218.897827,39.4851671 219.079951,39.5613416 219.27,39.5613227 L228.89,39.5613227 C229.119669,39.5761877 229.344615,39.4914191 229.507356,39.3286786 C229.670096,39.165938 229.754865,38.9409921 229.74,38.7113227 L229.74,33.9713227 C229.774014,33.7371002 229.695473,33.5005647 229.528116,33.3332071 C229.360758,33.1658495 229.124223,33.0873086 228.89,33.1213227 L226.7,33.1213227 L226.7,20.8513227 C226.669917,20.4606029 226.609739,20.0727857 226.52,19.6913227 C227.274871,17.5533341 229.32357,16.147126 231.59,16.2113227 C235.44,16.2113227 236.59,18.7713227 236.59,22.5013227 L236.59,36.7813227 C236.59,38.3332429 237.84808,39.5913227 239.4,39.5913227 L246.9,39.5913227 C247.369442,39.5913227 247.75,39.2107648 247.75,38.7413227 L247.75,33.9713227 C247.785671,33.7330637 247.704716,33.4921727 247.532395,33.3238126 C247.360073,33.1554525 247.117365,33.0801209 246.88,33.1213227 Z" id="Path"></path>
            <path d="M55.01,6.60132232 L40.46,6.60132232 C35.4476661,6.59991899 31.1034614,10.0719602 30,14.9613227 C28.8965386,10.0719602 24.5523339,6.59991899 19.54,6.60132232 L5,6.60132232 C2.23857625,6.60132232 0,8.83989899 0,11.6013223 L0,37.2013227 C0,39.9627465 2.23857625,42.2013227 5,42.2013227 L14.34,42.2013227 C24.98,42.2013227 28.16,44.7613227 29.68,50.0313227 C29.7126945,50.1582187 29.8290254,50.2454669 29.96,50.2414643 L30.02,50.2414643 C30.1509746,50.2454669 30.2673055,50.1582187 30.3,50.0313227 C31.83,44.7613227 35.01,42.2013227 45.64,42.2013227 L54.98,42.2013227 C57.7414237,42.2013227 59.98,39.9627465 59.98,37.2013227 L59.98,11.6013223 C59.98,8.85157242 57.7597008,6.61782124 55.01,6.60132232 Z M25.2,34.2313227 C25.2,34.3268007 25.1620715,34.4183681 25.0945584,34.4858812 C25.0270453,34.5533943 24.9354779,34.5913227 24.84,34.5913227 L8.14,34.5913227 C8.04452206,34.5913227 7.95295466,34.5533943 7.88544156,34.4858812 C7.81792846,34.4183681 7.78,34.3268007 7.78,34.2313227 L7.78,31.8513227 C7.78,31.6525002 7.94117749,31.4913227 8.14,31.4913227 L24.84,31.4913227 C25.0388225,31.4913227 25.2,31.6525002 25.2,31.8513227 L25.2,34.2313227 L25.2,34.2313227 Z M25.2,27.8913227 C25.2,28.0901453 25.0388225,28.2513227 24.84,28.2513227 L8.14,28.2513227 C8.04452206,28.2513227 7.95295466,28.2133943 7.88544156,28.1458812 C7.81792846,28.0783681 7.78,27.9868007 7.78,27.8913227 L7.78,25.5113227 C7.78,25.3125002 7.94117749,25.1513227 8.14,25.1513227 L24.84,25.1513227 C25.0388225,25.1513227 25.2,25.3125002 25.2,25.5113227 L25.2,27.8913227 L25.2,27.8913227 Z M25.2,21.5513227 C25.2,21.7501453 25.0388225,21.9113227 24.84,21.9113227 L8.14,21.9113227 C7.94117749,21.9113227 7.78,21.7501453 7.78,21.5513227 L7.78,19.1713227 C7.78,18.9725002 7.94117749,18.8113227 8.14,18.8113227 L24.84,18.8113227 C25.0388225,18.8113227 25.2,18.9725002 25.2,19.1713227 L25.2,21.5513227 Z M52.2,34.2213227 C52.2,34.3168007 52.1620715,34.4083681 52.0945584,34.4758812 C52.0270453,34.5433943 51.9354779,34.5813227 51.84,34.5813227 L35.14,34.5813227 C35.0445221,34.5813227 34.9529547,34.5433943 34.8854416,34.4758812 C34.8179285,34.4083681 34.78,34.3168007 34.78,34.2213227 L34.78,31.8413227 C34.78,31.7458448 34.8179285,31.6542774 34.8854416,31.5867643 C34.9529547,31.5192512 35.0445221,31.4813227 35.14,31.4813227 L51.84,31.4813227 C52.0388225,31.4813227 52.2,31.6425002 52.2,31.8413227 L52.2,34.2213227 L52.2,34.2213227 Z M52.2,27.8813227 C52.2,28.0801453 52.0388225,28.2413227 51.84,28.2413227 L35.14,28.2413227 C35.0445221,28.2413227 34.9529547,28.2033943 34.8854416,28.1358812 C34.8179285,28.0683681 34.78,27.9768007 34.78,27.8813227 L34.78,25.5013227 C34.78,25.4058448 34.8179285,25.3142774 34.8854416,25.2467643 C34.9529547,25.1792512 35.0445221,25.1413227 35.14,25.1413227 L51.84,25.1413227 C52.0388225,25.1413227 52.2,25.3025002 52.2,25.5013227 L52.2,27.8813227 L52.2,27.8813227 Z M52.2,21.5413227 C52.2,21.7401453 52.0388225,21.9013227 51.84,21.9013227 L35.14,21.9013227 C34.9411775,21.9013227 34.78,21.7401453 34.78,21.5413227 L34.78,19.1713227 C34.78,18.9725002 34.9411775,18.8113227 35.14,18.8113227 L51.84,18.8113227 C52.0388225,18.8113227 52.2,18.9725002 52.2,19.1713227 L52.2,21.5513227 L52.2,21.5413227 Z" id="Shape"></path>
        </g>
    </g>
</svg>